<svg xmlns="http://www.w3.org/2000/svg" viewBox="5 5 960 340.32">
<linearGradient id="githawk-ramp" gradientUnits="userSpaceOnUse" x1="5" y1="195.76" x2="461.09" y2="195.76"><stop offset="0" stop-color="#CCCCCC"/><stop offset="1" stop-color="#4EA3E8"/></linearGradient>
<path fill="url(#githawk-ramp)" d="M240.272 183.943c0 0-4.896 12.362 4.895 19.874 4.211 3.231 9.686 4.563 14.837 3.284 12.733-3.162 13.237-19.534 13.237-19.534l-6.042-2.071c0 0-2.934 13.291-11.91 12.428-7.422-0.518-5.696-10.184-5.696-10.184L240.272 183.943z"/>
<path fill="url(#githawk-ramp)" d="M221.457 307.189c0 0-31.416-32.02 24.511-64.04 0 0-25.697 5.451-39.954 23.048-4.185 5.166-6.953 11.393-7.578 18.011C196.649 303.13 213.15 307.34 221.457 307.189z"/>
<path fill="url(#githawk-ramp)" d="M179.339 312.195c0 0-16.744-35.558 30.035-66.111 44.189-26.237 111.854-7.94 93.557 21.749 0 0 45.167-22.555 2.129-65.363 0 0 3.913-15.19-31.761-37.515s-70.196-20.714-104.259-46.951c0 0 5.063 14.73 18.412 22.325 0 0-147.757-57.078-182.28-135.329 0 0-7.019 71.294 68.624 117.916 13.84 8.53 28.835 15.014 44.422 19.634 19.374 5.742 55.917 15.631 96.162 21.715 52.82 10.357 58.689 38.32 82.855 41.082 0 0-4.143 8.631-16.111 4.718 0 0-4.833 5.984-17.722 6.905 0 0 17.031 6.214 23.245 11.277 0 0-102.993-39.126-145.111 66.514C141.537 294.761 155.001 306.844 179.339 312.195z"/>
<path fill="url(#githawk-ramp)" d="M103.562 258.435c0 0 38.665-46.874 100.461-54.814 0 0-50.748-7.25-67.665-16.226 0 0 41.427-2.071 57.308-5.178 0 0-119.449-23.936-171.003-83.775 0 0 3.222 55.121 92.291 84.811 0 0-32.221 1.036-64.673-14.384 0 0 21.634 36.594 96.894 41.427C147.176 210.295 112.192 226.943 103.562 258.435z"/>
<path fill="url(#githawk-ramp)" d="M109.258 74.304l8.142 8.142c54.862-49.77 139.098-49.77 193.96 0l8.142-8.142C260.132 20.046 168.628 20.046 109.258 74.304zM70.286 197.79c-4.565-2.695-8.458-5.428-11.757-8.036 0.067 37.62 13.627 75.221 40.689 104.834l8.142-8.142C84.459 261.197 72.098 229.743 70.286 197.79zM329.542 84.345l-8.142 8.142c49.77 54.862 49.77 139.098 0 193.96l8.142 8.142C383.8 235.219 383.8 143.714 329.542 84.345zM311.36 296.487c-54.862 49.77-139.098 49.77-193.96 0l-8.142 8.142c59.37 54.258 150.874 54.258 210.244 0L311.36 296.487z"/>
<path fill="url(#githawk-ramp)" d="M345.184 312.947L337.86 320.27 301.243 283.653 308.567 276.33Z"/>
<path fill="url(#githawk-ramp)" d="M120.193 276.33L127.517 283.653 90.9 320.27 83.576 312.947Z"/>
<path fill="url(#githawk-ramp)" d="M337.86 58.663L345.184 65.986 308.567 102.603 301.243 95.28Z"/>
<path fill="#CCCCCC" d="M416.807 176.023v-2.155c0-7.468 1.508-13.835 4.523-19.101 3.017-5.265 7.013-9.336 11.993-12.208 4.977-2.872 10.435-4.308 16.373-4.308 6.894 0 12.183 1.292 15.87 3.878 3.685 2.585 6.392 5.363 8.114 8.329h2.299v-10.197h14.362v85.31c0 4.307-1.271 7.754-3.805 10.339-2.54 2.586-6.01 3.879-10.413 3.879h-47.682v-12.926h43.087c2.776 0 4.163-1.436 4.163-4.309v-22.548h-2.297c-1.055 1.724-2.538 3.497-4.453 5.314-1.915 1.821-4.43 3.305-7.54 4.453-3.113 1.148-7.015 1.723-11.704 1.723-5.938 0-11.419-1.411-16.445-4.235-5.027-2.824-9.025-6.894-11.993-12.208C418.291 189.738 416.807 183.396 416.807 176.023zM453.718 198.57c6.414 0 11.706-2.032 15.87-6.104 4.165-4.068 6.248-9.693 6.248-16.875v-1.292c0-7.371-2.059-13.045-6.176-17.019-4.117-3.973-9.432-5.96-15.942-5.96-6.32 0-11.561 1.987-15.726 5.96-4.165 3.974-6.248 9.648-6.248 17.019v1.292c0 7.182 2.083 12.807 6.248 16.875C442.157 196.538 447.398 198.57 453.718 198.57z"/>
<path fill="#CCCCCC" d="M519.64 130.639c-2.873 0-5.292-0.933-7.252-2.8-1.964-1.867-2.945-4.284-2.945-7.253 0-2.967 0.981-5.386 2.945-7.253 1.96-1.867 4.379-2.8 7.252-2.8 2.966 0 5.407 0.933 7.324 2.8 1.915 1.867 2.873 4.287 2.873 7.253 0 2.969-0.958 5.386-2.873 7.253C525.047 129.705 522.606 130.639 519.64 130.639zM512.172 211.066v-70.804h14.792v70.804H512.172z"/>
<path fill="#CCCCCC" d="M575.508 211.066c-4.309 0-7.733-1.292-10.269-3.877-2.538-2.585-3.805-6.032-3.805-10.341v-44.091H541.9v-12.495h19.533v-23.41h14.792v23.41h21.112v12.495h-21.112v41.506c0 2.871 1.339 4.307 4.021 4.307h14.792v12.495H575.508z"/>
<path fill="#4EA3E8" d="M613.851 211.066V110.533h18.097v38.059h2.585c0.765-1.531 1.96-3.064 3.591-4.596 1.626-1.53 3.805-2.801 6.534-3.806 2.729-1.005 6.198-1.508 10.413-1.508 5.551 0 10.411 1.27 14.576 3.806 4.165 2.538 7.396 6.032 9.695 10.483 2.299 4.453 3.447 9.648 3.447 15.583v42.512h-18.097V169.99c0-5.36-1.316-9.382-3.949-12.064-2.633-2.679-6.39-4.021-11.273-4.021-5.555 0-9.862 1.845-12.926 5.53-3.065 3.686-4.595 8.833-4.595 15.439v36.192H613.851z"/>
<path fill="#4EA3E8" d="M724.439 213.076c-5.076 0-9.623-0.886-13.644-2.657s-7.205-4.356-9.551-7.756c-2.347-3.397-3.519-7.54-3.519-12.422 0-4.883 1.172-8.977 3.519-12.28 2.345-3.303 5.602-5.792 9.765-7.468 4.165-1.674 8.928-2.514 14.29-2.514h19.533v-4.021c0-3.35-1.055-6.104-3.161-8.258-2.106-2.153-5.458-3.231-10.053-3.231-4.502 0-7.852 1.03-10.053 3.089-2.203 2.059-3.639 4.716-4.309 7.97l-16.659-5.602c1.148-3.638 2.992-6.966 5.53-9.981 2.535-3.017 5.935-5.458 10.197-7.325 4.259-1.867 9.454-2.801 15.583-2.801 9.382 0 16.803 2.348 22.26 7.038 5.458 4.692 8.186 11.488 8.186 20.393v26.57c0 2.873 1.339 4.309 4.021 4.309h5.746v14.936h-12.065c-3.542 0-6.462-0.862-8.761-2.585-2.297-1.724-3.447-4.021-3.447-6.894v-0.144h-2.729c-0.383 1.148-1.246 2.657-2.585 4.523-1.341 1.868-3.447 3.519-6.32 4.955C733.343 212.358 729.416 213.076 724.439 213.076zM727.598 198.428c5.074 0 9.214-1.413 12.423-4.237 3.206-2.823 4.811-6.583 4.811-11.275v-1.436h-18.239c-3.353 0-5.985 0.718-7.9 2.155-1.917 1.436-2.873 3.447-2.873 6.032 0 2.586 1.006 4.692 3.017 6.32C720.848 197.614 723.768 198.428 727.598 198.428z"/>
<path fill="#4EA3E8" d="M789.211 211.066l-10.053-71.235h17.951l6.32 59.028h2.585l9.192-59.028h29.01l9.191 59.028h2.586l6.318-59.028h17.953l-10.053 71.235h-30.017l-9.192-59.027h-2.585l-9.191 59.027H789.211z"/>
<path fill="#4EA3E8" d="M896.062 211.066V110.533h18.097v55.58h2.585l23.553-26.283h23.555l-32.889 34.469L965 211.066h-23.267l-24.989-28.292h-2.585v28.292H896.062z"/>
</svg>
